<?xml version="1.0" encoding="utf-8"?>
<!-- Generator: Adobe Illustrator 19.2.1, SVG Export Plug-In . SVG Version: 6.00 Build 0)  -->
<svg version="1.1" id="layer" xmlns="http://www.w3.org/2000/svg" xmlns:xlink="http://www.w3.org/1999/xlink" x="0px" y="0px"
	 viewBox="0 0 652 652" style="enable-background:new 0 0 652 652;" xml:space="preserve">
<style type="text/css">
	.st0{fill:#231815;}
	.st1{fill:#E50012;}
</style>
<g>
	<path class="st0" d="M25.7,440.1L25.7,440.1c0-7.2,5.3-13.1,13-13.1c3.9,0,6.4,1.1,8.6,2.8c0.5,0.4,0.9,1,0.9,1.8
		c0,1.2-1,2.1-2.2,2.1c-0.6,0-1-0.2-1.4-0.4c-1.7-1.4-3.6-2.3-6-2.3c-4.8,0-8.3,4-8.3,8.9v0.1c0,4.9,3.5,8.9,8.3,8.9
		c2.7,0,4.5-0.9,6.3-2.4c0.3-0.3,0.8-0.5,1.3-0.5c1.1,0,2.1,0.9,2.1,2c0,0.7-0.3,1.2-0.7,1.6c-2.4,2.1-5.1,3.4-9.1,3.4
		C31.1,453.1,25.7,447.4,25.7,440.1"/>
	<path class="st0" d="M64.8,440.1L64.8,440.1c0-7.2,5.5-13.1,13.2-13.1c7.7,0,13.1,5.9,13.1,13v0.1c0,7.1-5.5,13-13.2,13
		C70.2,453.1,64.8,447.2,64.8,440.1 M86.5,440.1L86.5,440.1c0-5-3.5-9.1-8.6-9.1c-5,0-8.5,4-8.5,8.9v0.1c0,4.9,3.5,8.9,8.5,8.9
		C83,449,86.5,445,86.5,440.1"/>
	<path class="st0" d="M108.7,440.1L108.7,440.1c0-7.2,5.5-13.1,13.2-13.1c7.7,0,13.1,5.9,13.1,13v0.1c0,7.1-5.5,13-13.2,13
		C114.1,453.1,108.7,447.2,108.7,440.1 M130.4,440.1L130.4,440.1c0-5-3.6-9.1-8.6-9.1c-5,0-8.5,4-8.5,8.9v0.1c0,4.9,3.6,8.9,8.6,8.9
		C126.9,449,130.4,445,130.4,440.1"/>
	<path class="st0" d="M153.7,429.5c0-1.2,1-2.2,2.2-2.2c1.2,0,2.2,1,2.2,2.2v19.1h11.4c1.1,0,2,0.9,2,2c0,1.1-0.9,2-2,2H156
		c-1.2,0-2.2-1-2.2-2.2V429.5z"/>
	<path class="st0" d="M189.6,429.5c0-1.2,1-2.2,2.2-2.2c1.2,0,2.2,1,2.2,2.2v21.1c0,1.2-1,2.2-2.2,2.2c-1.3,0-2.2-1-2.2-2.2V429.5z"
		/>
	<path class="st0" d="M214,429.5c0-1.2,1-2.2,2.2-2.2h0.5c1.1,0,1.7,0.5,2.3,1.3l12.6,16.3v-15.5c0-1.2,1-2.2,2.1-2.2
		c1.2,0,2.2,1,2.2,2.2v21.1c0,1.2-1,2.2-2.2,2.2h-0.2c-1,0-1.7-0.5-2.3-1.3l-13-16.8v16c0,1.2-1,2.2-2.2,2.2c-1.2,0-2.2-1-2.2-2.2
		V429.5z"/>
	<path class="st0" d="M254.6,440.1L254.6,440.1c0-7.1,5.4-13.1,13-13.1c3.8,0,6.3,0.9,8.6,2.5c0.4,0.3,0.9,0.9,0.9,1.8
		c0,1.2-1,2.2-2.2,2.2c-0.6,0-1-0.3-1.3-0.5c-1.7-1.2-3.4-2-6.1-2c-4.6,0-8.2,4.1-8.2,8.9v0.1c0,5.2,3.4,9,8.6,9
		c2.4,0,4.5-0.8,6.1-1.9v-4.7h-5c-1.1,0-2-0.8-2-1.9c0-1.1,0.9-1.9,2-1.9h7c1.3,0,2.2,1,2.2,2.2v6.7c0,1.3-0.5,2.2-1.5,2.8
		c-2.2,1.4-5.2,2.7-9,2.7C259.8,453.1,254.6,447.4,254.6,440.1"/>
	<path class="st0" d="M338.2,452.3l-2.6-2.7c-2.1,2.1-4.7,3.3-7.8,3.3c-4.7,0-8.3-2.8-8.3-7.2v-0.1c0-3.3,1.9-5.6,5.4-7.1
		c-1.4-1.9-2.1-3.4-2.1-5.3v-0.1c0-3.4,2.7-6.3,7.2-6.3c4,0,6.7,2.7,6.7,6.1v0.1c0,3.3-2.2,5.3-5.5,6.6l4.3,4.3
		c0.8-1.1,1.4-2.3,2.1-3.6c0.2-0.4,0.8-1.1,1.6-1.1c1,0,1.9,0.9,1.9,1.9c0,0.3-0.1,0.7-0.3,1c-0.8,1.5-1.8,3.1-2.7,4.4l2.8,2.8
		c0.4,0.4,0.7,0.8,0.7,1.5c0,1.1-0.9,2-2,2C339.1,453,338.7,452.8,338.2,452.3 M333,447.1l-5.6-5.7c-2.4,1.1-3.4,2.6-3.4,4.2v0.1
		c0,2.1,1.8,3.7,4.2,3.7C330,449.3,331.6,448.5,333,447.1 M332.8,433.4L332.8,433.4c0-1.8-1.2-2.9-2.8-2.9c-1.8,0-3,1.2-3,3v0.1
		c0,1.3,0.5,2.2,1.9,3.7C331.5,436.4,332.8,435.3,332.8,433.4"/>
	<path class="st0" d="M383.8,429.5c0-1.2,1-2.2,2.2-2.2c1.2,0,2.2,1,2.2,2.2v8.5h12v-8.5c0-1.2,1-2.2,2.2-2.2c1.2,0,2.2,1,2.2,2.2
		v21.1c0,1.2-1,2.2-2.2,2.2c-1.2,0-2.2-1-2.2-2.2V442h-12v8.6c0,1.2-1,2.2-2.2,2.2c-1.3,0-2.2-1-2.2-2.2V429.5z"/>
	<path class="st0" d="M424.5,450.4v-20.7c0-1.3,1-2.3,2.2-2.3h14.6c1.1,0,2,0.9,2,2c0,1.1-0.9,2-2,2h-12.4v6.5h10.8
		c1.1,0,2,0.9,2,2.1c0,1.1-0.9,1.9-2,1.9h-10.8v6.8h12.6c1.1,0,2,0.9,2,2c0,1.1-0.9,2-2,2h-14.8
		C425.5,452.6,424.5,451.7,424.5,450.4"/>
	<path class="st0" d="M460.5,449.8l9.4-20.9c0.5-1.1,1.4-1.8,2.7-1.8h0.2c1.3,0,2.1,0.7,2.6,1.8l9.4,20.9c0.2,0.3,0.2,0.7,0.2,0.9
		c0,1.2-0.9,2.1-2.1,2.1c-1.1,0-1.8-0.6-2.2-1.6l-2.1-4.7h-12.2l-2.1,4.8c-0.3,0.9-1.1,1.4-2.1,1.4c-1.1,0-2-0.9-2-2.1
		C460.2,450.4,460.3,450.1,460.5,449.8 M476.9,442.6l-4.4-10.2l-4.5,10.2H476.9z"/>
	<path class="st0" d="M506.3,431.5h-6.1c-1.1,0-2.1-0.9-2.1-2.1c0-1.1,0.9-2,2.1-2H517c1.1,0,2,1,2,2c0,1.1-0.9,2.1-2,2.1h-6.2v19.1
		c0,1.2-1,2.2-2.2,2.2c-1.2,0-2.2-1-2.2-2.2V431.5z"/>
	<path class="st0" d="M537,429.5c0-1.2,1-2.2,2.3-2.2c1.2,0,2.2,1,2.2,2.2v21.1c0,1.2-1,2.2-2.2,2.2c-1.3,0-2.3-1-2.3-2.2V429.5z"/>
	<path class="st0" d="M561.5,429.5c0-1.2,1-2.2,2.2-2.2h0.5c1.1,0,1.7,0.5,2.3,1.3l12.6,16.3v-15.5c0-1.2,1-2.2,2.2-2.2
		c1.2,0,2.2,1,2.2,2.2v21.1c0,1.2-0.9,2.2-2.2,2.2h-0.2c-1,0-1.7-0.5-2.3-1.3l-13-16.8v16c0,1.2-1,2.2-2.2,2.2c-1.2,0-2.2-1-2.2-2.2
		V429.5z"/>
	<path class="st0" d="M602.1,440.1L602.1,440.1c0-7.1,5.4-13.1,13-13.1c3.8,0,6.3,0.9,8.6,2.5c0.4,0.3,0.9,0.9,0.9,1.8
		c0,1.2-1,2.2-2.2,2.2c-0.6,0-1-0.3-1.4-0.5c-1.6-1.2-3.3-2-6.1-2c-4.7,0-8.2,4.1-8.2,8.9v0.1c0,5.2,3.4,9,8.6,9
		c2.4,0,4.5-0.8,6.1-1.9v-4.7h-4.9c-1.1,0-2-0.8-2-1.9c0-1.1,0.9-1.9,2-1.9h7c1.2,0,2.2,1,2.2,2.2v6.7c0,1.3-0.5,2.2-1.6,2.8
		c-2.1,1.4-5.2,2.7-9,2.7C607.3,453.1,602.1,447.4,602.1,440.1"/>
	<polygon class="st1" points="93.5,370.4 27.3,370.4 60.4,313 126.7,313 	"/>
	<polygon class="st1" points="159.7,370.4 226,370.4 192.9,313 126.7,313 	"/>
	<polygon class="st1" points="159.7,255.7 126.7,198.3 93.5,255.7 126.7,313 	"/>
	<polygon class="st0" points="255.7,346.1 282.2,346.1 282.2,336.4 255.7,336.4 255.7,324.6 285.5,324.6 285.5,315 255.7,315 
		244.4,315 244.4,324.6 244.4,360.8 244.4,370.4 255.7,370.4 286.3,370.4 286.3,360.8 255.7,360.8 	"/>
	<polygon class="st0" points="254.9,264.5 266.7,305.7 267.2,305.7 277,305.7 277.5,305.7 289.3,264.5 289.3,305.7 299.7,305.7 
		299.7,250.2 294,250.2 289.1,250.2 283.7,250.2 272.1,289.2 260.5,250.2 255.1,250.2 250.2,250.2 244.4,250.2 244.4,305.7 
		254.9,305.7 	"/>
	<rect x="499.1" y="250.2" class="st0" width="11.2" height="55.5"/>
	<rect x="508.2" y="315" class="st0" width="11.2" height="55.5"/>
	<rect x="609.6" y="250.2" class="st0" width="11.2" height="55.5"/>
	<rect x="304.2" y="250.2" class="st0" width="11.1" height="55.5"/>
	<polygon class="st0" points="594,271.9 571.8,271.9 571.8,250.2 560.8,250.2 560.8,305.7 571.8,305.7 571.8,281.5 594,281.5 
		594,305.7 604.9,305.7 604.9,250.2 594,250.2 	"/>
	<polygon class="st0" points="331.9,305.7 343.3,305.7 343.3,259.9 356.8,259.9 356.8,250.2 343.3,250.2 331.9,250.2 318.3,250.2 
		318.3,259.9 331.9,259.9 	"/>
	<polygon class="st0" points="433.8,370.4 445.2,370.4 445.2,324.6 458.8,324.6 458.8,315 445.2,315 433.8,315 420.2,315 
		420.2,324.6 433.8,324.6 	"/>
	<path class="st0" d="M426.1,307.3c14.3,0,22.1-6.5,22.1-18.9v-38.2h-11.2v39.2c0,4.8-4,8.7-11,8.7c-8.4,0-10.9-4.7-10.9-8.7v-39.2
		h-11v38.2C404.3,301.7,412.6,307.3,426.1,307.3"/>
	<polygon class="st0" points="341.7,346.1 368.2,346.1 368.2,336.4 341.7,336.4 341.7,324.6 371.6,324.6 371.6,315 341.7,315 
		330.5,315 330.5,324.6 330.5,360.8 330.5,370.4 341.7,370.4 372.3,370.4 372.3,360.8 341.7,360.8 	"/>
	<path class="st0" d="M463.8,305.7h16c10.4,0,16.7-6.2,16.7-15c0-7.1-5.1-13.1-10.7-14.5c4.9-1.2,8.8-6.2,8.8-12.3
		c0-8.2-6-13.7-17.3-13.7h-13.5h-11.5h0v55.5h0H463.8z M476.4,297.4h-13.1v-16.1h13c4.6,0,8.6,2.7,8.6,8.1
		C484.9,293.9,481.3,297.4,476.4,297.4 M477.3,259.1c3.1,0,6.5,2.8,6.5,6.6c0,3.3-2.4,7-7.1,7h-13.3v-13.5H477.3z"/>
	<path class="st0" d="M495,343.8c4.8-1.4,9.8-5.7,9.8-13.4c0-9.9-6.7-15.5-18-15.5h-14.1h-11.1h-0.1v55.5h11.2v-21.8h9.6
		c5.8,0,8.9,3,9.8,6.9c1,4.4,0.8,10.9,1.9,14.9h11.3c-1.1-4.3-1.7-10-2-14.6C502.9,348.3,498.9,345.3,495,343.8 M472.7,339.6v-15.1
		h13.5c4.6,0,7.6,3.2,7.6,7.6c0,3.1-2.7,7.5-7.3,7.5H472.7z"/>
	<polygon class="st0" points="301.1,315 289.9,315 289.9,360.8 289.9,370.4 301.1,370.4 327.3,370.4 327.3,360.8 301.1,360.8 	"/>
	<path class="st0" d="M375.6,282.3c9,1.6,14.1,3.2,14.1,8.6c0,3.6-3.6,7.1-11.1,7.1c-7.5,0-11.3-4.2-11.3-9.3h-10.8
		c0,9.6,6.2,18.4,22.6,18.4c15.5,0,22.2-8.2,22.2-17.5c0-8.8-5.7-14.3-16-16.3c-9.8-1.9-16.6-2.4-16.6-8.6c0-4.3,3.9-6.8,10-6.8
		c6.4,0,10.1,3.1,10.1,8.5h10.8c0-8.7-6.6-17.7-21.4-17.7c-10.2,0-20.7,5.9-20.7,16.8C357.6,274.6,364.3,280.3,375.6,282.3"/>
	<path class="st0" d="M532,282.3c9,1.6,14.1,3.2,14.1,8.6c0,3.6-3.6,7.1-11.1,7.1c-7.4,0-11.3-4.2-11.3-9.3h-10.8
		c0,9.6,6.3,18.4,22.6,18.4c15.5,0,22.2-8.2,22.2-17.5c0-8.8-5.7-14.3-16-16.3c-9.8-1.9-16.6-2.4-16.6-8.6c0-4.3,3.9-6.8,10-6.8
		c6.4,0,10.1,3.1,10.1,8.5H556c0-8.7-6.6-17.7-21.4-17.7c-10.2,0-20.7,5.9-20.7,16.8C514,274.6,520.7,280.3,532,282.3"/>
	<path class="st0" d="M397.6,361.9c-9,0-14.3-8.9-14.3-19.4c0-10.5,5.1-19.4,14.3-19.4c6.9,0,10.4,4.3,11.9,9.5h11.6
		c-1.9-10.9-10.4-18.9-23.9-18.9c-16.9,0-25.5,13-25.5,29c0,16,8.9,29,25.5,29c13.3,0,22.3-7.7,23.9-19.6h-11.7
		C408,357.6,404.3,361.9,397.6,361.9"/>
	<path class="st0" d="M547.9,361.9c-9,0-14.3-8.9-14.3-19.4c0-10.5,5.1-19.4,14.3-19.4c6.8,0,10.4,4.3,11.9,9.5h11.6
		c-1.9-10.9-10.4-18.9-23.8-18.9c-17,0-25.6,13-25.6,29c0,16,9,29,25.6,29c13.3,0,22.3-7.7,23.9-19.6h-11.7
		C558.3,357.6,554.7,361.9,547.9,361.9"/>
</g>
</svg>
