<svg xmlns="http://www.w3.org/2000/svg" width="285" height="73" viewBox="0 0 285 73">
  <g fill="none" fill-rule="evenodd">
    <path fill="#060D22" d="M65.0675135,71.9474119 C59.2759606,69.6929819 53.1734519,67.7106383 47.5762464,65.106383 C42.7953001,62.8908225 37.9754843,60.0144808 35.4878374,55.1557955 C34.3994919,53.0957129 33.8941886,50.8412829 33.8164497,48.509114 L33.8164497,48.2370276 L33.8553191,47.9649413 C34.4772309,40.3076532 34.6715783,32.3394093 34.6327088,24.6432518 C34.5938393,19.2015243 34.4772309,13.5654493 33.8553191,8.1625913 L33.3500159,3.5371229 L37.8977453,2.68199428 C47.4207685,0.855128612 57.1381391,0 66.8943792,0 C76.6506192,0 86.3291204,0.855128612 95.891013,2.68199428 L100.438742,3.5371229 L99.9334392,8.12372182 C99.350397,13.5654493 99.194919,19.1626548 99.1560495,24.6043823 C99.1171801,32.3005399 99.3115275,40.2687837 99.9334392,47.9260718 L99.9723087,48.1981581 L99.9723087,48.4702445 C99.8945697,50.8024135 99.350397,53.017974 98.3009209,55.116926 C95.8132741,59.9367418 90.9934582,62.851953 86.2125119,65.0675135 C80.576437,67.6717688 74.5127977,69.6541124 68.7212448,71.9085424 L66.9332487,72.6081931 L65.0675135,71.9474119 L65.0675135,71.9474119 Z M65.9615116,69.6152429 L66.8555097,69.9650683 L67.7495078,69.6152429 C70.8590664,68.410289 73.968625,67.283074 77.0781836,66.1169895 C79.7601778,65.106383 82.4810416,64.056907 85.1241664,62.851953 C89.3220705,60.9084789 93.8309305,58.3042236 96.0464909,54.0285805 C96.940489,52.2794538 97.4069228,50.4137186 97.4457923,48.4702445 L97.4457923,48.3147666 L97.4457923,48.1592887 C97.1737059,44.7387742 96.9793585,41.3182598 96.8627501,37.8588758 C96.7072721,33.4277548 96.6295332,28.9966339 96.6684027,24.6043823 C96.7072721,19.0460464 96.8627501,13.3711019 97.4457923,7.85163544 L97.6790092,5.55833598 L95.4245792,5.13077167 C86.0181645,3.34277548 76.4562718,2.48764687 66.8943792,2.48764687 C57.3324865,2.48764687 47.7705938,3.34277548 38.3641791,5.13077167 L36.1097491,5.55833598 L36.342966,7.85163544 C36.9260083,13.3711019 37.0814862,19.0460464 37.1203557,24.6043823 C37.1592252,29.0355033 37.0814862,33.4666243 36.9260083,37.8588758 C36.8093998,41.2793903 36.6539219,44.7387742 36.342966,48.1592887 L36.342966,48.3147666 L36.342966,48.4702445 C36.420705,50.4137186 36.8482693,52.3183233 37.7422674,54.0285805 C39.9578279,58.3042236 44.4278184,60.9084789 48.6645919,62.851953 C51.2688473,64.056907 53.989711,65.106383 56.7105748,66.1169895 C59.7423944,67.283074 62.8908225,68.410289 65.9615116,69.6152429 Z"/>
    <path fill="#060D22" d="M96.1242299,48.3925056 C96.0853604,50.1416323 95.6577961,51.81302 94.8804065,53.4066688 C92.8203239,57.371356 88.5058114,59.8201334 84.5799936,61.6081296 C81.9757383,62.8130835 79.293744,63.8236901 76.6506192,64.8342966 C73.5410607,66.0003811 70.3926326,67.1664655 67.3219435,68.33255 L66.8943792,68.4880279 L66.4668149,68.33255 C63.3572563,67.1275961 60.2476977,66.0003811 57.1381391,64.8342966 C54.4561448,63.8236901 51.7741505,62.8130835 49.2087647,61.6081296 C45.3218164,59.8201334 40.9684344,57.3324865 38.9083519,53.4066688 C38.0920927,51.8518895 37.7033979,50.1416323 37.6645284,48.3925056 L37.6645284,48.3147666 L37.6645284,48.2370276 C37.9366148,44.8165132 38.1309622,41.3571292 38.2475707,37.8977453 C38.4030486,33.4666243 38.4807876,29.0355033 38.4807876,24.5655129 C38.4419181,18.9683074 38.2864401,13.2544935 37.7033979,7.69615751 L37.5867895,6.607812 L38.6362655,6.41346459 C47.9649413,4.66433789 57.449095,3.80920927 66.9332487,3.80920927 C76.4174023,3.80920927 85.901556,4.66433789 95.2302318,6.41346459 L96.2797078,6.607812 L96.1630994,7.69615751 C95.5411877,13.2544935 95.4245792,19.0071769 95.3857097,24.5655129 C95.3468403,28.9966339 95.4245792,33.4666243 95.6189266,37.8977453 C95.7355351,41.3571292 95.891013,44.8165132 96.2019689,48.2370276 L96.2019689,48.3147666 L96.1242299,48.3925056 Z"/>
    <path fill="#C3D0E6" d="M38.7917434,7.57954906 C48.0426802,5.83042236 57.4102255,4.97529374 66.8555097,4.97529374 C76.3396634,4.93642426 85.6683392,5.83042236 94.919276,7.57954906 C93.5588441,20.0566529 94.1807558,39.6080025 94.919276,48.3536361 C94.6083201,58.2264846 82.8697364,61.0639568 66.8555097,67.283074 C50.8024135,61.0639568 39.0638298,58.2264846 38.7917434,48.3536361 C39.5302636,39.646872 40.1521753,20.0566529 38.7917434,7.57954906 Z"/>
    <path fill="#9EB3CD" d="M66.8943792,4.97529374 C76.3785329,4.93642426 85.7072086,5.83042236 94.9581454,7.57954906 C93.5977136,20.0566529 94.2196253,39.6080025 94.9581454,48.3536361 C94.6471896,58.2264846 82.9086059,61.0639568 66.8943792,67.283074 L66.8943792,4.97529374 L66.8943792,4.97529374 Z"/>
    <path fill="#FFFFFF" d="M61.724738,8.24033026 C64.4067323,7.5018101 67.9438552,7.30746269 70.5481105,7.85163544 C72.3361067,8.24033026 73.968625,9.05658939 75.0958399,10.5336297 C75.4067958,10.961194 75.7566211,11.5053668 75.9509686,12.0495395 L77.117053,12.5159733 C78.5552239,13.0990156 79.9156558,14.8092728 80.6930454,16.0919657 L80.9262623,16.51953 L64.7954271,59.1204827 L64.3678628,59.2759606 C61.5692601,60.2865672 57.7211813,61.3749127 54.1451889,61.8413465 L58.0710067,60.0533503 L52.940235,59.8201334 L47.5373769,60.5586535 C47.5373769,60.5586535 47.9649413,61.0250873 49.55859,61.7636075 C49.7918069,61.8802159 50.0250238,61.9968244 50.2193712,62.0745634 C49.8306764,62.0745634 49.4808511,62.0356939 49.0921562,61.9968244 C43.7670372,61.4915211 42.2122579,62.6576056 37.7033979,64.7176882 C35.4100984,65.8060337 32.2228009,66.07812 29.735154,65.2618609 C26.9365513,66.7389012 22.6997777,68.0993331 19.6290886,67.283074 C17.2580502,66.6222928 15.0424897,64.7176882 13.9152747,62.4632582 C12.166148,63.2406478 10.2615433,64.5233407 8.93998095,65.6505557 C7.34633217,67.0109876 5.75268339,69.3431566 5.24738012,71.3643696 L4.81981581,72.9968879 L3.57599238,71.8696729 C2.99295014,71.3643696 2.44877739,70.4703715 2.13782153,69.7707209 C1.12721499,67.7495078 0.621911718,65.4173388 0.427564306,63.1629089 C-0.15547793,56.32188 4.46999047,51.4243252 10.3004128,48.6645919 C11.2721499,48.1981581 12.2438869,47.6928549 13.1767545,47.1098126 C16.5583995,45.0885996 21.3782153,41.2016513 23.5549063,37.8588758 C24.2934265,36.6927914 24.9542077,35.1768815 25.5372499,33.8941886 C26.431248,31.911845 27.3252461,29.8906319 28.2192442,27.8694189 C29.5019371,25.0319466 30.940108,21.6891712 32.6503652,19.0849158 C36.2263576,13.6431883 42.3677358,8.70676405 48.8589393,7.34633217 C51.890759,6.72442045 55.039187,6.68555097 58.0710067,7.22972372 C59.2759606,7.54067958 60.597523,7.81276596 61.724738,8.24033026 Z"/>
    <path fill="#060D22" d="M79.8379168,16.597269 C79.8379168,16.597269 78.399746,14.1096221 76.7672277,13.4488409 L75.1347094,12.7880597 C75.1347094,12.7880597 74.4739282,9.67850111 70.3148936,8.8233725 C66.155859,7.9293744 61.646999,9.28980629 61.646999,9.28980629 C61.646999,9.28980629 56.0109241,7.03537631 49.0921562,8.47354716 C42.1733884,9.91171801 36.4595745,15.3145761 33.5443633,19.7845665 C30.6291521,24.2156875 26.3146396,35.5655764 24.4100349,38.5585265 C22.5054303,41.5126072 16.8693554,46.8377263 10.7279771,49.714068 C4.6254684,52.5904097 0.893998095,57.2547475 1.39930137,63.2017783 C1.94347412,69.1099397 4.27564306,71.1700222 4.27564306,71.1700222 C4.27564306,71.1700222 5.16964116,67.5940299 8.31806923,64.9120356 C11.4664973,62.2300413 14.4594474,61.2194347 14.4594474,61.2194347 C14.4594474,61.2194347 15.9364878,65.2618609 19.9400445,66.3502064 C23.9047317,67.4774214 29.6574151,64.2123849 29.6574151,64.2123849 C29.6574151,64.2123849 33.4277548,65.6505557 37.3147031,63.8236901 C41.2016513,62.0356939 43.3006034,60.4420451 49.2087647,60.9862178 C55.1557955,61.5303906 64.0180375,58.3042236 64.0180375,58.3042236 L79.8379168,16.597269 Z"/>
    <path fill="#ED1C24" d="M77.8944427,17.8799619 C77.8944427,17.8799619 77.8944427,15.392315 75.7954906,14.1873611 L73.6965386,12.9824071 C73.6965386,12.9824071 72.2194983,9.52302318 68.8378533,9.60076215 C65.4562083,9.67850111 62.3466497,10.8057161 62.3466497,10.8057161 C62.3466497,10.8057161 59.9367418,9.21206732 54.8448396,9.09545888 C49.7529374,8.93998095 44.7387742,9.91171801 40.1521753,13.9930137 C35.6044459,18.0354398 32.6114957,22.3110829 31.3676723,25.7704668 C30.1238488,29.2298507 25.5372499,40.4631312 22.8163862,44.5444268 C20.0955224,48.6257225 15.0813592,52.0851064 15.0813592,52.0851064 C15.0813592,52.0851064 18.2686567,49.1310257 19.3570022,47.5373769 C20.4064782,45.9437282 21.7280406,43.9613846 21.7280406,43.9613846 C16.0142267,49.5197205 3.5371229,52.862496 2.83747221,60.9473484 C2.52651635,64.7954271 3.88694824,68.5268974 3.88694824,68.5268974 C3.88694824,68.5268974 6.49120356,63.8625595 11.0778025,61.4915211 C15.6644014,59.1204827 25.5372499,56.9049222 29.4241982,47.0709432 C33.3111464,37.2369641 35.1380121,19.3570022 42.0567799,15.6644014 C49.0144173,11.9718006 55.3112734,16.0530962 55.3112734,16.0530962 C55.3112734,16.0530962 54.0285805,12.3604954 51.6575421,12.0495395 C49.2865037,11.7385837 47.8094633,12.2050175 47.8094633,12.2050175 C47.8094633,12.2050175 50.7246745,9.87284852 54.5727533,11.7385837 C58.420832,13.6043188 57.1381391,15.0424897 61.4915211,16.7138774 C65.8449031,18.3852652 77.8944427,17.8799619 77.8944427,17.8799619 Z"/>
    <path fill="#F1585F" d="M23.3605589,43.6504287 C23.2439505,43.8447761 23.127342,44.077993 22.9718641,44.2334709 C23.3994284,43.9225151 23.5549063,43.7281677 23.3605589,43.6504287 L23.3605589,43.6504287 Z M20.2898698,46.0992061 C21.02839,44.9719911 21.6891712,44.000254 21.6891712,44.000254 C16.0142267,49.5197205 3.5371229,52.862496 2.83747221,60.9473484 C2.68199428,62.8130835 2.91521118,64.6788187 3.22616704,66.07812 C3.22616704,66.0392506 2.60425532,59.7423944 5.90816132,56.2830105 C9.01771991,53.017974 16.1697047,48.7423309 20.2898698,46.0992061 Z"/>
    <path fill="#F1585F" d="M35.9931407,18.2297872 C33.7387107,20.9117815 32.1839314,23.5160368 31.3676723,25.7704668 C30.1238488,29.2298507 25.5372499,40.4631312 22.8163862,44.5444268 C20.0955224,48.6257225 15.0813592,52.0851064 15.0813592,52.0851064 C15.0813592,52.0851064 22.000127,48.9366783 25.304033,43.106256 C28.6468085,37.2758336 30.9789775,25.2262941 35.9931407,18.2297872 Z"/>
    <path fill="#ED1C24" d="M16.8304859,62.1523023 C16.8304859,62.1523023 24.9930772,61.2194347 29.2298507,53.3677993 C33.5054938,45.4772944 34.9436647,37.8977453 36.4595745,31.9507145 C37.9754843,26.0036837 43.3006034,22.077866 43.3006034,22.077866 C43.3006034,22.077866 37.6645284,31.0178469 36.1486186,40.1133058 C34.6715783,49.2087647 33.0779295,56.7105748 29.9295014,60.753001 C26.7810734,64.8342966 24.3711654,65.0675135 20.9117815,64.5233407 C17.4912671,63.9402985 16.8304859,62.1523023 16.8304859,62.1523023 Z"/>
    <path fill="#ED1C24" d="M32.7281042,62.851953 C32.7281042,62.851953 37.3147031,62.851953 40.1910448,61.0639568 C43.0673865,59.2759606 49.2865037,60.1699587 49.2865037,60.1699587 L55.7777072,41.2016513 L47.6928549,30.4348047 L44.8165132,26.5478565 C44.8165132,26.5478565 41.2016513,27.0920292 39.5302636,34.8659257 C37.8588758,42.6398222 39.2581772,51.1522388 37.1203557,56.166402 C34.9825341,61.1805653 32.7281042,62.851953 32.7281042,62.851953 Z"/>
    <path fill="#B2282D" d="M32.7281042,62.851953 C32.7281042,62.851953 37.3147031,62.851953 40.1910448,61.0639568 C43.0673865,59.2759606 49.2865037,60.1699587 49.2865037,60.1699587 L55.7777072,41.2016513 L47.6928549,30.4348047 L44.8165132,26.5478565 C44.8165132,26.5478565 41.3182598,27.0920292 39.6080025,34.5549698 C41.3182598,36.3818355 43.8447761,37.1592252 44.5055573,39.7634805 C45.282947,42.950778 45.7493808,54.2617974 43.7670372,57.3324865 C41.7458241,60.3643061 32.7281042,62.851953 32.7281042,62.851953 Z"/>
    <path fill="#060D22" d="M76.7672277,16.597269 C76.7672277,16.597269 75.5622737,14.8481423 72.84141,13.9541442 C68.7212448,12.5937123 66.0003811,13.7597968 60.8696094,11.1944109 C64.5622102,15.1979676 70.0428072,12.7491902 73.2301048,16.0919657 C68.7601143,13.9152747 63.4738647,15.8198793 59.7423944,13.0212766 C59.7423944,13.0212766 61.1805653,14.7704033 64.8731661,15.3534455 C68.5657669,15.8976183 70.1205462,16.8693554 70.1205462,16.8693554 L76.7672277,16.597269 Z"/>
    <path fill="#FFFFFF" d="M80.9262623,16.51953 L80.6930454,16.0919657 C80.4598285,15.7032709 80.1877421,15.2757066 79.8767863,14.8481423 L85.979295,14.8481423 C88.3503334,14.8481423 90.2938076,16.7916164 90.2938076,19.1626548 L90.2938076,28.9188949 C90.2938076,31.2899333 88.3503334,33.2334074 85.979295,33.2334074 L85.7072086,33.2334074 L85.7072086,59.7812639 C43.6504287,64.1735154 73.4244522,36.3818355 80.9262623,16.51953 Z"/>
    <path fill="#060D22" d="M84.6966021,60.2865672 L84.6966021,32.2228009 L85.979295,32.2228009 C87.8061607,32.2228009 89.283201,30.7457606 89.283201,28.9188949 L89.283201,19.1626548 C89.283201,17.3357891 87.8061607,15.8587488 85.979295,15.8587488 L47.8094633,15.8587488 C45.9825977,15.8587488 44.5055573,17.3357891 44.5055573,19.1626548 L44.5055573,28.9188949 C44.5055573,30.7457606 45.9825977,32.2228009 47.8094633,32.2228009 L48.8200699,32.2228009 L48.8200699,60.1699587 L49.0532868,60.2865672 L49.0532868,60.2865672 L49.2865037,60.4031756 C49.5197205,60.5197841 49.7529374,60.597523 49.9861543,60.7141315 L50.0250238,60.7141315 L50.2193712,60.7918704 L50.4525881,60.9084789 L50.685805,61.0250873 L50.763544,61.0639568 L50.9190219,61.1416958 L50.9190219,61.1416958 L51.1522388,61.2583042 L51.3465862,61.3360432 L51.4243252,61.3749127 L51.6575421,61.4915211 L51.6575421,61.4915211 L51.890759,61.6081296 L51.9296285,61.6081296 L52.1628453,61.6858685 L52.2405843,61.724738 L52.3960622,61.802477 L52.6292791,61.9190854 L52.6292791,61.9190854 L52.8236265,61.9968244 L52.9013655,62.0356939 L53.4066688,62.2300413 L53.4066688,62.2300413 L53.4455383,62.2689108 L53.6398857,62.3466497 L53.9119721,62.4632582 L54.06745,62.5409971 L54.1840584,62.5798666 L54.4172753,62.6576056 L54.4561448,62.6576056 L54.7282312,62.774214 L55.0003176,62.8908225 L55.0780565,62.929692 L55.2724039,63.0074309 L55.3890124,63.0463004 L55.5444903,63.0851699 L55.8165767,63.2017783 L56.0497936,63.2795173 L56.0886631,63.2795173 L56.3607494,63.3961258 L56.3996189,63.3961258 L56.6717053,63.5127342 L56.7494443,63.5516037 L56.9437917,63.6293426 L57.0992696,63.6682121 L57.2547475,63.7070816 L57.449095,63.7848206 L57.5268339,63.8236901 L57.7989203,63.9402985 L57.7989203,63.9402985 L58.0710067,64.056907 L58.1098762,64.056907 L58.343093,64.1346459 L58.4597015,64.1735154 L58.6540489,64.2512544 L58.8095268,64.3289933 L58.9261353,64.3678628 L59.1593522,64.4456018 L59.2370911,64.4844713 L59.548047,64.6010797 L59.548047,64.6010797 L59.8590029,64.7176882 L59.9367418,64.7565576 L60.1699587,64.8342966 L60.2865672,64.8731661 L60.4809146,64.950905 L60.675262,65.028644 L60.7918704,65.0675135 L61.0639568,65.1452525 L61.1028263,65.1452525 L61.4137822,65.2618609 L61.4137822,65.2618609 L61.724738,65.3784694 L61.802477,65.4173388 L62.0356939,65.4950778 L62.1911718,65.5339473 L62.3466497,65.6116862 L62.5409971,65.6894252 L62.6576056,65.7282947 L62.929692,65.8449031 L62.9685614,65.8449031 L63.2795173,65.9615116 L63.3183868,65.9615116 L63.5904732,66.07812 L63.7070816,66.1169895 L64.0957764,66.2724674 L64.2512544,66.3113369 L64.4844713,66.3890759 L64.5622102,66.4279454 L64.8731661,66.5445538 L64.8731661,66.5445538 L65.1841219,66.6611623 L65.2229914,66.6611623 L65.4950778,66.7777707 L65.6116862,66.8166402 L65.8060337,66.8943792 L66.0003811,66.9721181 L66.155859,67.0109876 L66.4279454,67.1275961 L66.5056843,67.1664655 L66.8555097,67.283074 L67.1664655,67.1664655 L67.2442045,67.1275961 L67.5162909,67.0109876 L67.6328993,66.9721181 L67.8272467,66.8943792 L68.0215942,66.8166402 L68.1770721,66.7777707 L68.410289,66.7000318 L68.4880279,66.6611623 L68.7989838,66.5445538 L68.7989838,66.5445538 L69.1099397,66.4279454 L69.1488091,66.4279454 L69.4208955,66.3113369 L69.537504,66.2724674 L69.7318514,66.1947285 L69.8873293,66.1169895 L70.0428072,66.07812 L70.2760241,66.0003811 L70.3537631,65.9615116 L70.6258495,65.8449031 L70.664719,65.8449031 L70.9756748,65.7282947 L71.0145443,65.7282947 L71.2866307,65.6116862 L71.3643696,65.5728168 L71.5975865,65.4950778 L71.7530645,65.4562083 L71.9085424,65.3784694 L72.2194983,65.2618609 L72.4915846,65.1841219 L72.5304541,65.1841219 L72.84141,65.0675135 L72.84141,65.0675135 L73.1134963,64.950905 L73.1912353,64.9120356 L73.4244522,64.8342966 L73.5410607,64.7954271 L73.6965386,64.7176882 L73.890886,64.6399492 L74.0074944,64.6010797 L74.2407113,64.5233407 L74.3184503,64.4844713 L74.5905367,64.3678628 L74.5905367,64.3678628 L74.8626231,64.2512544 L74.9014925,64.2512544 L75.1347094,64.1735154 L75.2513179,64.1346459 L75.4456653,64.056907 L75.6011432,63.979168 L75.7177517,63.9402985 L75.9120991,63.8625595 L75.989838,63.8236901 L76.2619244,63.7070816 L76.3007939,63.7070816 L76.5728803,63.5904732 L76.6117498,63.5904732 L76.8449667,63.5127342 L76.9227056,63.4738647 L77.117053,63.3961258 L77.272531,63.3572563 L77.4280089,63.3183868 L77.6223563,63.2406478 L77.7000953,63.2017783 L77.9333122,63.1240394 L77.9721816,63.1240394 L78.244268,63.0074309 L78.244268,63.0074309 L78.4774849,62.8908225 L78.5552239,62.851953 L78.7495713,62.774214 L78.8661797,62.7353446 L79.0216577,62.6964751 L79.1771356,62.6187361 L79.2548746,62.5798666 L79.2548746,62.5798666 L79.4880915,62.4632582 L79.7601778,62.3466497 L79.7601778,62.3466497 L80.0322642,62.2300413 L80.0711337,62.1911718 L80.2654811,62.1134328 L80.5375675,61.9968244 L80.5375675,61.9968244 L81.0428708,61.802477 L81.2760876,61.6858685 L81.2760876,61.6858685 L81.5093045,61.5692601 C81.8591299,61.4137822 82.1700857,61.2971737 82.4810416,61.1416958 L82.7142585,61.0639568 L82.753128,61.0639568 L82.9863449,60.9473484 L83.0252144,60.9473484 L83.2195618,60.8696094 C83.4527787,60.753001 83.6859956,60.675262 83.9192124,60.5586535 L84.1135599,60.4809146 L84.1524293,60.4809146 C84.3856462,60.4420451 84.5411242,60.3643061 84.6966021,60.2865672 Z"/>
    <path fill="#EF4423" d="M50.7246745 36.0708796L61.724738 36.0708796C62.3855192 36.0708796 62.929692 35.6044459 62.929692 35.0602731L62.929692 31.6397587C62.929692 31.0567164 62.3855192 30.6291521 61.724738 30.6291521L50.7246745 30.6291521 50.7246745 36.0708796zM50.7246745 49.6751985L61.724738 49.6751985C62.3855192 49.6751985 62.929692 49.2087647 62.929692 48.6645919L62.929692 45.2440775C62.929692 44.6610352 62.3855192 44.2334709 61.724738 44.2334709L50.7246745 44.2334709 50.7246745 49.6751985z"/>
    <path fill="#F15F23" d="M50.7246745 42.8730391L54.4950143 42.8730391C55.1557955 42.8730391 55.6999682 42.4066053 55.6999682 41.8624325L55.6999682 38.4419181C55.6999682 37.8588758 55.1557955 37.4313115 54.4950143 37.4313115L50.7246745 37.4313115 50.7246745 42.8730391zM50.7246745 56.4773579L54.4950143 56.4773579C55.1557955 56.4773579 55.6999682 56.0109241 55.6999682 55.4667513L55.6999682 52.0462369C55.6999682 51.4631947 55.1557955 51.0356304 54.4950143 51.0356304L50.7246745 51.0356304 50.7246745 56.4773579z"/>
    <path fill="#EF4423" d="M65.4173388,30.5902826 L77.7389648,30.5902826 C78.399746,30.5902826 78.9439187,31.0567164 78.9439187,31.6008892 L78.9439187,35.0214036 C78.9439187,35.6044459 78.399746,36.0320102 77.7389648,36.0320102 L65.4173388,36.0320102 C64.7565576,36.0320102 64.2123849,35.5655764 64.2123849,35.0214036 L64.2123849,31.6008892 C64.2123849,31.0567164 64.7565576,30.5902826 65.4173388,30.5902826 Z"/>
    <path fill="#F15F23" d="M65.4173388,44.2334709 L77.7389648,44.2334709 C78.399746,44.2334709 78.9439187,44.6999047 78.9439187,45.2440775 L78.9439187,48.6645919 C78.9439187,49.2476342 78.399746,49.6751985 77.7389648,49.6751985 L65.4173388,49.6751985 C64.7565576,49.6751985 64.2123849,49.2087647 64.2123849,48.6645919 L64.2123849,45.2440775 C64.2123849,44.6610352 64.7565576,44.2334709 65.4173388,44.2334709 Z"/>
    <path fill="#EF4423" d="M58.1487456 37.392442L70.4703715 37.392442C71.1311527 37.392442 71.6753255 37.8588758 71.6753255 38.4030486L71.6753255 41.823563C71.6753255 42.4066053 71.1311527 42.8341696 70.4703715 42.8341696L58.1487456 42.8341696C57.4879644 42.8341696 56.9437917 42.3677358 56.9437917 41.823563L56.9437917 38.4030486C56.9437917 37.8588758 57.4879644 37.392442 58.1487456 37.392442zM58.1487456 51.0356304L70.4703715 51.0356304C71.1311527 51.0356304 71.6753255 51.5020641 71.6753255 52.0462369L71.6753255 55.4667513C71.6753255 56.0497936 71.1311527 56.4773579 70.4703715 56.4773579L58.1487456 56.4773579C57.4879644 56.4773579 56.9437917 56.0109241 56.9437917 55.4667513L56.9437917 52.0462369C56.9437917 51.5020641 57.4879644 51.0356304 58.1487456 51.0356304z"/>
    <path fill="#F15F23" d="M84.929819,30.940108 C84.9686885,30.8234995 85.007558,30.7068911 85.007558,30.6291521 L81.4315656,30.6291521 C80.7707844,30.6291521 80.2266116,31.0955859 80.2266116,31.6397587 L80.2266116,35.0602731 C80.2266116,35.6433153 80.7707844,36.0708796 81.4315656,36.0708796 L82.7919975,36.0708796 L82.7919975,30.940108 L84.929819,30.940108 Z"/>
    <path fill="#EF4423" d="M82.7919975,44.2334709 L81.4315656,44.2334709 C80.7707844,44.2334709 80.2266116,44.6999047 80.2266116,45.2440775 L80.2266116,48.6645919 C80.2266116,49.2476342 80.7707844,49.6751985 81.4315656,49.6751985 L82.7919975,49.6751985 L82.7919975,44.2334709 Z"/>
    <path fill="#F15F23" d="M80.2266116 61.9968244L80.7707844 61.9968244C81.4704351 61.724738 82.1312163 61.4137822 82.7919975 61.1416958L82.7919975 57.7989203 81.4315656 57.7989203C80.7707844 57.7989203 80.2266116 58.2653541 80.2266116 58.8095268L80.2266116 61.9968244zM82.7919975 37.392442L74.1629724 37.392442C73.5021912 37.392442 72.9580184 37.8588758 72.9580184 38.4030486L72.9580184 41.823563C72.9580184 42.4066053 73.5021912 42.8341696 74.1629724 42.8341696L82.7919975 42.8341696 82.7919975 37.392442z"/>
    <path fill="#F3755D" d="M50.7246745,31.4065418 L60.7918704,31.4065418 C61.4526516,31.4065418 61.9968244,31.8729755 61.9968244,32.4171483 L61.9968244,35.8376628 C61.9968244,35.9154017 61.9968244,35.9931407 61.9579549,36.0708796 C62.0745634,36.0320102 62.2300413,35.9931407 62.3077802,35.9542712 C62.3855192,35.7987933 62.4632582,35.6433153 62.4632582,35.4878374 L62.4632582,32.067323 C62.4632582,31.4842807 61.9190854,31.0567164 61.2583042,31.0567164 L50.7246745,31.0567164 L50.7246745,31.4065418 L50.7246745,31.4065418 Z"/>
    <path fill="#F58C7A" d="M50.7246745,45.0108606 L60.7918704,45.0108606 C61.4526516,45.0108606 61.9968244,45.4772944 61.9968244,46.0214671 L61.9968244,49.4419816 C61.9968244,49.5197205 61.9968244,49.5974595 61.9579549,49.6751985 C62.0745634,49.636329 62.2300413,49.5974595 62.3077802,49.55859 C62.3855192,49.4031121 62.4632582,49.2476342 62.4632582,49.0921562 L62.4632582,45.6716418 C62.4632582,45.0885996 61.9190854,44.6610352 61.2583042,44.6610352 L50.7246745,44.6610352 L50.7246745,45.0108606 L50.7246745,45.0108606 Z"/>
    <path fill="#F3755D" d="M50.7246745 38.2087012L53.5232772 38.2087012C54.1840584 38.2087012 54.7282312 38.675135 54.7282312 39.2193077L54.7282312 42.6398222C54.7282312 42.7175611 54.7282312 42.7953001 54.6893617 42.8730391 54.8059701 42.8341696 54.9614481 42.7953001 55.039187 42.7564306 55.116926 42.6009527 55.194665 42.4454748 55.194665 42.2899968L55.194665 38.8694824C55.194665 38.2864401 54.6504922 37.8588758 53.989711 37.8588758L50.7246745 37.8588758 50.7246745 38.2087012zM50.7246745 51.81302L53.5232772 51.81302C54.1840584 51.81302 54.7282312 52.2794538 54.7282312 52.8236265L54.7282312 56.244141C54.7282312 56.32188 54.7282312 56.3996189 54.6893617 56.4773579 54.8059701 56.4384884 54.9614481 56.3996189 55.039187 56.3607494 55.116926 56.2052715 55.194665 56.0497936 55.194665 55.8943157L55.194665 52.4738012C55.194665 51.890759 54.6504922 51.4631947 53.989711 51.4631947L50.7246745 51.4631947 50.7246745 51.81302z"/>
    <path fill="#F58C7A" d="M78.322007 35.9542712C78.2053985 35.9931407 78.0887901 36.0320102 77.9721816 36.0708796 78.0110511 35.9931407 78.0110511 35.9154017 78.0110511 35.8376628L78.0110511 32.4171483C78.0110511 31.8341061 77.4668784 31.4065418 76.8060972 31.4065418L64.4844713 31.4065418 64.2512544 31.4065418C64.2901238 31.3288028 64.3289933 31.2510638 64.3678628 31.1733249 64.5233407 31.0955859 64.7565576 31.0567164 64.950905 31.0567164L77.272531 31.0567164C77.9333122 31.0567164 78.4774849 31.5231502 78.4774849 32.067323L78.4774849 35.4878374C78.4774849 35.6433153 78.399746 35.7987933 78.322007 35.9542712zM78.322007 49.55859C78.2053985 49.5974595 78.0887901 49.636329 77.9721816 49.6751985 78.0110511 49.5974595 78.0110511 49.5197205 78.0110511 49.4419816L78.0110511 46.0214671C78.0110511 45.4384249 77.4668784 45.0108606 76.8060972 45.0108606L64.4844713 45.0108606 64.2512544 45.0108606C64.2901238 44.9331216 64.3289933 44.8553827 64.3678628 44.7776437 64.5233407 44.6999047 64.7565576 44.6610352 64.950905 44.6610352L77.272531 44.6610352C77.9333122 44.6610352 78.4774849 45.127469 78.4774849 45.6716418L78.4774849 49.0921562C78.4774849 49.2476342 78.399746 49.4031121 78.322007 49.55859zM71.0534138 42.7564306C70.9368053 42.7953001 70.8201969 42.8341696 70.7035884 42.8730391 70.7424579 42.7953001 70.7424579 42.7175611 70.7424579 42.6398222L70.7424579 39.2193077C70.7424579 38.6362655 70.1982852 38.2087012 69.537504 38.2087012L57.2158781 38.2087012 56.9826612 38.2087012C57.0215306 38.1309622 57.0604001 38.0532232 57.0992696 37.9754843 57.2547475 37.8977453 57.4879644 37.8588758 57.6823118 37.8588758L70.0039378 37.8588758C70.664719 37.8588758 71.2088917 38.3253096 71.2088917 38.8694824L71.2088917 42.2899968C71.2088917 42.4454748 71.1700222 42.6009527 71.0534138 42.7564306zM71.0534138 56.3607494C70.9368053 56.3996189 70.8201969 56.4384884 70.7035884 56.4773579 70.7424579 56.3996189 70.7424579 56.32188 70.7424579 56.244141L70.7424579 52.8236265C70.7424579 52.2405843 70.1982852 51.81302 69.537504 51.81302L57.2158781 51.81302 56.9826612 51.81302C57.0215306 51.735281 57.0604001 51.6575421 57.0992696 51.5798031 57.2547475 51.5020641 57.4879644 51.4631947 57.6823118 51.4631947L70.0039378 51.4631947C70.664719 51.4631947 71.2088917 51.9296285 71.2088917 52.4738012L71.2088917 55.8943157C71.2088917 56.0497936 71.1700222 56.2052715 71.0534138 56.3607494z"/>
    <path fill="#721E21"/>
    <path fill="#F58C7A"/>
    <path fill="#F58C7A"/>
    <path fill="#F58C7A"/>
    <path fill="#F3755D"/>
    <path fill="#B4302E" d="M50.7246745 36.0708796L61.724738 36.0708796 61.9190854 36.0708796C62.1911718 35.4489679 62.5409971 34.9047952 62.929692 34.5161003L62.929692 31.6397587C62.929692 31.0567164 62.3855192 30.6291521 61.724738 30.6291521L50.7246745 30.6291521 50.7246745 36.0708796zM50.7246745 49.6751985L61.0250873 49.6751985C60.8696094 47.8094633 60.7918704 45.9437282 60.7918704 44.1946015L50.7246745 44.1946015 50.7246745 49.6751985z"/>
    <path fill="#BD4D2F" d="M50.7246745,42.8730391 L54.4950143,42.8730391 C55.1557955,42.8730391 55.6999682,42.4066053 55.6999682,41.8624325 L55.6999682,38.4419181 C55.6999682,37.8588758 55.1557955,37.4313115 54.4950143,37.4313115 L50.7246745,37.4313115 L50.7246745,42.8730391 Z"/>
    <path fill="#D4542A" d="M50.7246745,56.4773579 L54.4950143,56.4773579 C55.1557955,56.4773579 55.6999682,56.0109241 55.6999682,55.4667513 L55.6999682,52.0462369 C55.6999682,51.4631947 55.1557955,51.0356304 54.4950143,51.0356304 L50.7246745,51.0356304 L50.7246745,56.4773579 Z"/>
    <path fill="#B4302E" d="M65.4173388 30.5902826L77.7389648 30.5902826C78.399746 30.5902826 78.9439187 31.0567164 78.9439187 31.6008892L78.9439187 32.5337567C73.6576691 32.1061924 67.5940299 32.1061924 64.2123849 33.6609717L64.2123849 31.6008892C64.2123849 31.0567164 64.7565576 30.5902826 65.4173388 30.5902826zM58.1487456 37.392442L61.4526516 37.392442C61.0639568 38.9083519 60.8307399 40.774087 60.7918704 42.8730391L58.1487456 42.8730391C57.4879644 42.8730391 56.9437917 42.4066053 56.9437917 41.8624325L56.9437917 38.4419181C56.9437917 37.8588758 57.4879644 37.392442 58.1487456 37.392442zM58.1487456 51.0356304L61.1416958 51.0356304C61.2971737 52.862496 61.5303906 54.7282312 61.7636075 56.5162274L58.1487456 56.5162274C57.4879644 56.5162274 56.9437917 56.0497936 56.9437917 55.5056208L56.9437917 52.0851064C56.9437917 51.5020641 57.4879644 51.0356304 58.1487456 51.0356304zM84.929819 30.940108C84.9686885 30.8234995 85.007558 30.7068911 85.007558 30.6291521L81.4315656 30.6291521C80.7707844 30.6291521 80.2266116 31.0955859 80.2266116 31.6397587L80.2266116 32.6892347C81.1206097 32.7669736 81.9757383 32.8835821 82.7919975 32.9613211L82.7919975 30.9012385 84.929819 30.9012385 84.929819 30.940108z"/>
    <path fill="#B36960" d="M50.7246745,31.4065418 L60.7918704,31.4065418 C61.4526516,31.4065418 61.9968244,31.8729755 61.9968244,32.4171483 L61.9968244,35.8376628 L61.9968244,35.9542712 C62.1523023,35.6433153 62.3077802,35.3323595 62.4632582,35.0991426 L62.4632582,32.067323 C62.4632582,31.4842807 61.9190854,31.0567164 61.2583042,31.0567164 L50.7246745,31.0567164 L50.7246745,31.4065418 Z"/>
    <path fill="#B36960"/>
    <path fill="#B36960" d="M50.7246745 38.2087012L53.5232772 38.2087012C54.1840584 38.2087012 54.7282312 38.675135 54.7282312 39.2193077L54.7282312 42.6398222C54.7282312 42.7175611 54.7282312 42.7953001 54.6893617 42.8730391 54.8059701 42.8341696 54.9614481 42.7953001 55.039187 42.7564306 55.116926 42.6009527 55.194665 42.4454748 55.194665 42.2899968L55.194665 38.8694824C55.194665 38.2864401 54.6504922 37.8588758 53.989711 37.8588758L50.7246745 37.8588758 50.7246745 38.2087012zM50.7246745 51.81302L53.5232772 51.81302C54.1840584 51.81302 54.7282312 52.2794538 54.7282312 52.8236265L54.7282312 56.244141C54.7282312 56.32188 54.7282312 56.3996189 54.6893617 56.4773579 54.8059701 56.4384884 54.9614481 56.3996189 55.039187 56.3607494 55.116926 56.2052715 55.194665 56.0497936 55.194665 55.8943157L55.194665 52.4738012C55.194665 51.890759 54.6504922 51.4631947 53.989711 51.4631947L50.7246745 51.4631947 50.7246745 51.81302z"/>
    <path fill="#BE5544" d="M77.9721816,32.4948873 L77.9721816,32.4171483 C77.9721816,31.8341061 77.4280089,31.4065418 76.7672277,31.4065418 L64.4456018,31.4065418 L64.2123849,31.4065418 C64.2512544,31.3288028 64.2901238,31.2510638 64.3289933,31.1733249 C64.4844713,31.0955859 64.7176882,31.0567164 64.9120356,31.0567164 L77.2336615,31.0567164 C77.8944427,31.0567164 78.4386154,31.5231502 78.4386154,32.067323 L78.4386154,32.5337567 C78.322007,32.5337567 78.1665291,32.5337567 77.9721816,32.4948873 Z"/>
    <path fill="#B36960"/>
    <path fill="#B36960"/>
    <path fill="#5C1618"/>
    <path fill="#060D22" d="M47.7705938,16.6361385 L85.9404255,16.6361385 C87.3397269,16.6361385 88.4669419,17.7633534 88.4669419,19.1626548 L88.4669419,28.9188949 C88.4669419,30.3181963 87.3397269,31.4454112 85.9404255,31.4454112 L47.7705938,31.4454112 C46.3712925,31.4454112 45.2440775,30.3181963 45.2440775,28.9188949 L45.2440775,19.1626548 C45.2440775,17.8022229 46.410162,16.6361385 47.7705938,16.6361385 Z"/>
    <path fill="#060D22" d="M48.0426802,17.6078755 L85.7072086,17.6078755 C86.6789457,17.6078755 87.4952048,18.4241346 87.4952048,19.3958717 L87.4952048,28.6468085 C87.4952048,29.6185456 86.6789457,30.4348047 85.7072086,30.4348047 L48.0426802,30.4348047 C47.0709432,30.4348047 46.254684,29.6185456 46.254684,28.6468085 L46.254684,19.4347412 C46.2158145,18.4241346 47.0320737,17.6078755 48.0426802,17.6078755 Z"/>
    <g transform="translate(45.866 17.88)">
      <path fill="#EF4423" d="M0.349825341,5.55833598 L0.349825341,1.5547793 C0.349825341,0.971737059 0.6607812,0.427564306 1.08834551,0.0777389648 L4.93642426,0.0777389648 C5.5194665,0.0777389648 5.9470308,0.544172753 5.9470308,1.08834551 L5.9470308,4.50885996 C5.9470308,5.09190219 5.48059701,5.5194665 4.93642426,5.5194665 L0.349825341,5.5194665 L0.349825341,5.55833598 Z"/>
      <path fill="#F15F23" d="M8.12372182,0.0777389648 L18.6184821,0.0777389648 C19.2015243,0.0777389648 19.6290886,0.544172753 19.6290886,1.08834551 L19.6290886,4.50885996 C19.6290886,5.09190219 19.1626548,5.5194665 18.6184821,5.5194665 L8.12372182,5.5194665 C7.54067958,5.5194665 7.11311527,5.05303271 7.11311527,4.50885996 L7.11311527,1.08834551 C7.07424579,0.544172753 7.54067958,0.0777389648 8.12372182,0.0777389648 Z"/>
      <path fill="#EF4423" d="M1.94347412 6.87989838L12.4382344 6.87989838C13.0212766 6.87989838 13.4488409 7.34633217 13.4488409 7.89050492L13.4488409 11.3110194C13.4488409 11.8940616 12.9824071 12.3216259 12.4382344 12.3216259L1.94347412 12.3216259C1.36043188 12.3216259.932867577 11.8551921.932867577 11.3110194L.932867577 7.89050492C.893998095 7.34633217 1.36043188 6.87989838 1.94347412 6.87989838zM21.7280406.0777389648L32.2228009.0777389648C32.8058431.0777389648 33.2334074.544172753 33.2334074 1.08834551L33.2334074 4.50885996C33.2334074 5.09190219 32.7669736 5.5194665 32.2228009 5.5194665L21.7280406 5.5194665C21.1449984 5.5194665 20.7174341 5.05303271 20.7174341 4.50885996L20.7174341 1.08834551C20.6785646.544172753 21.1449984.0777389648 21.7280406.0777389648z"/>
      <path fill="#F15F23" d="M15.547793 6.87989838L26.0425532 6.87989838C26.6255954 6.87989838 27.0531597 7.34633217 27.0531597 7.89050492L27.0531597 11.3110194C27.0531597 11.8940616 26.5867259 12.3216259 26.0425532 12.3216259L15.547793 12.3216259C14.9647507 12.3216259 14.5371864 11.8551921 14.5371864 11.3110194L14.5371864 7.89050492C14.4983169 7.34633217 14.9647507 6.87989838 15.547793 6.87989838zM40.8906955.0777389648C41.3571292.388694824 41.6292156.932867577 41.6292156 1.5547793L41.6292156 5.55833598 35.29349 5.55833598C34.7104478 5.55833598 34.2828835 5.09190219 34.2828835 4.54772944L34.2828835 1.12721499C34.2828835.544172753 34.7493172.116608447 35.29349.116608447L40.8906955.116608447 40.8906955.0777389648z"/>
      <path fill="#EF4423" d="M29.1521118,6.87989838 L39.646872,6.87989838 C40.2299143,6.87989838 40.6574786,7.34633217 40.6574786,7.89050492 L40.6574786,11.3110194 C40.6574786,11.8940616 40.1910448,12.3216259 39.646872,12.3216259 L29.1521118,12.3216259 C28.5690695,12.3216259 28.1415052,11.8551921 28.1415052,11.3110194 L28.1415052,7.89050492 C28.1415052,7.34633217 28.607939,6.87989838 29.1521118,6.87989838 Z"/>
      <path fill="#F3755D" d="M0.544172753,0.738520165 C0.583042236,0.621911718 0.6607812,0.505303271 0.738520165,0.427564306 L4.50885996,0.427564306 C5.09190219,0.427564306 5.5194665,0.893998095 5.5194665,1.43817085 L5.5194665,4.8586853 C5.5194665,5.09190219 5.44172753,5.2862496 5.32511909,5.44172753 C5.24738012,5.48059701 5.16964116,5.48059701 5.09190219,5.5194665 C5.13077167,5.40285805 5.16964116,5.2862496 5.16964116,5.16964116 L5.16964116,1.74912671 C5.16964116,1.16608447 4.70320737,0.738520165 4.15903461,0.738520165 L0.544172753,0.738520165 Z"/>
      <path fill="#F58C7A" d="M19.0071769 5.48059701C18.9294379 5.5194665 18.851699 5.5194665 18.77396 5.55833598 18.8128295 5.44172753 18.851699 5.32511909 18.851699 5.20851064L18.851699 1.78799619C18.851699 1.20495395 18.3852652.777389648 17.8410924.777389648L7.34633217.777389648 7.19085424.777389648C7.22972372.699650683 7.2685932.621911718 7.30746269.544172753 7.42407113.505303271 7.57954906.466433789 7.69615751.466433789L18.1909178.466433789C18.77396.466433789 19.2015243.932867577 19.2015243 1.47704033L19.2015243 4.89755478C19.2015243 5.09190219 19.1237853 5.2862496 19.0071769 5.48059701zM12.8269292 12.2827564C12.7491902 12.3216259 12.6714513 12.3216259 12.5937123 12.3604954 12.6325818 12.2438869 12.6714513 12.1272785 12.6714513 12.0106701L12.6714513 8.5901556C12.6714513 8.00711337 12.2050175 7.57954906 11.6608447 7.57954906L1.16608447 7.57954906 1.01060654 7.57954906C1.04947602 7.5018101 1.08834551 7.42407113 1.12721499 7.34633217 1.24382344 7.30746269 1.39930137 7.2685932 1.51590981 7.2685932L12.0106701 7.2685932C12.5937123 7.2685932 13.0212766 7.73502699 13.0212766 8.27919975L13.0212766 11.6608447C13.0212766 11.8940616 12.9435376 12.088409 12.8269292 12.2827564zM32.6114957 5.48059701C32.5337567 5.5194665 32.4560178 5.5194665 32.3782788 5.55833598 32.4171483 5.44172753 32.4560178 5.32511909 32.4560178 5.20851064L32.4560178 1.78799619C32.4560178 1.20495395 31.989584.777389648 31.4454112.777389648L20.950651.777389648 20.7951731.777389648C20.8340426.699650683 20.872912.621911718 20.9117815.544172753 21.02839.505303271 21.1838679.466433789 21.3004763.466433789L31.7952366.466433789C32.3782788.466433789 32.8058431.932867577 32.8058431 1.47704033L32.8058431 4.89755478C32.8058431 5.09190219 32.7281042 5.2862496 32.6114957 5.48059701zM26.431248 12.2827564C26.3535091 12.3216259 26.2757701 12.3216259 26.1980311 12.3604954 26.2369006 12.2438869 26.2757701 12.1272785 26.2757701 12.0106701L26.2757701 8.5901556C26.2757701 8.00711337 25.8093363 7.57954906 25.2651635 7.57954906L14.7704033 7.57954906 14.6149254 7.57954906C14.6537949 7.5018101 14.6926643 7.42407113 14.7315338 7.34633217 14.8481423 7.30746269 15.0036202 7.2685932 15.1202286 7.2685932L25.6149889 7.2685932C26.1980311 7.2685932 26.6255954 7.73502699 26.6255954 8.27919975L26.6255954 11.6608447C26.6255954 11.8940616 26.5478565 12.088409 26.431248 12.2827564z"/>
      <path fill="#F3755D"/>
      <path fill="#F58C7A" d="M40.0355668,12.2827564 C39.9578279,12.3216259 39.8800889,12.3216259 39.80235,12.3604954 C39.8412194,12.2438869 39.8800889,12.1272785 39.8800889,12.0106701 L39.8800889,8.5901556 C39.8800889,8.00711337 39.4136551,7.57954906 38.8694824,7.57954906 L28.3747221,7.57954906 L28.2192442,7.57954906 C28.2581137,7.5018101 28.2969832,7.42407113 28.3358527,7.34633217 C28.4524611,7.30746269 28.607939,7.2685932 28.7245475,7.2685932 L39.2193077,7.2685932 C39.80235,7.2685932 40.2299143,7.73502699 40.2299143,8.27919975 L40.2299143,11.6608447 C40.2299143,11.8940616 40.1521753,12.088409 40.0355668,12.2827564 Z"/>
    </g>
    <g transform="translate(45.866 17.88)">
      <path fill="#B4302E" d="M.349825341 5.55833598L.349825341 1.5547793C.349825341.971737059.6607812.427564306 1.08834551.0777389648L4.93642426.0777389648C5.5194665.0777389648 5.9470308.544172753 5.9470308 1.08834551L5.9470308 4.50885996C5.9470308 5.09190219 5.48059701 5.5194665 4.93642426 5.5194665L.349825341 5.5194665.349825341 5.55833598zM8.12372182.0777389648L18.6184821.0777389648C19.2015243.0777389648 19.6290886.544172753 19.6290886 1.08834551L19.6290886 2.44877739C14.3817085 2.83747221 11.1944109 3.69260083 11.0778025 5.5194665L8.12372182 5.5194665C7.54067958 5.5194665 7.11311527 5.05303271 7.11311527 4.50885996L7.11311527 1.08834551C7.07424579.544172753 7.54067958.0777389648 8.12372182.0777389648zM1.94347412 6.87989838L11.0778025 6.87989838C11.2332804 8.62902509 12.088409 9.71737059 13.4877104 10.3392823L13.4877104 11.3110194C13.4877104 11.8940616 13.0212766 12.3216259 12.4771038 12.3216259L1.9823436 12.3216259C1.39930137 12.3216259.971737059 11.8551921.971737059 11.3110194L.971737059 7.89050492C.893998095 7.34633217 1.36043188 6.87989838 1.94347412 6.87989838zM21.7280406.0777389648L32.2228009.0777389648C32.8058431.0777389648 33.2334074.544172753 33.2334074 1.08834551L33.2334074 2.17669101C28.4135916 2.13782153 24.176818 2.17669101 20.6785646 2.37103842L20.6785646 1.04947602C20.6785646.544172753 21.1449984.0777389648 21.7280406.0777389648zM27.0531597 11.116672L27.0531597 11.3110194C27.0531597 11.8940616 26.5867259 12.3216259 26.0425532 12.3216259L15.547793 12.3216259C14.9647507 12.3216259 14.5371864 11.8551921 14.5371864 11.3110194L14.5371864 10.7279771C17.3746586 11.5053668 21.7280406 11.116672 26.6255954 11.116672L27.0531597 11.116672zM40.8906955.0777389648C41.3571292.388694824 41.6292156.932867577 41.6292156 1.5547793L41.6292156 2.29329946C39.0638298 2.25442998 36.6150524 2.2155605 34.2828835 2.2155605L34.2828835 1.12721499C34.2828835.544172753 34.7493172.116608447 35.29349.116608447L40.8906955.116608447 40.8906955.0777389648zM40.6574786 10.8834551L40.6574786 11.3110194C40.6574786 11.8940616 40.1910448 12.3216259 39.646872 12.3216259L29.1521118 12.3216259C28.5690695 12.3216259 28.1415052 11.8551921 28.1415052 11.3110194L28.1415052 11.116672C33.2334074 11.116672 37.8200064 10.961194 40.6574786 10.8834551z"/>
      <path fill="#B36960" d="M.544172753.738520165C.583042236.621911718.6607812.505303271.738520165.427564306L4.50885996.427564306C5.09190219.427564306 5.5194665.893998095 5.5194665 1.43817085L5.5194665 4.8586853C5.5194665 5.09190219 5.44172753 5.2862496 5.32511909 5.44172753 5.24738012 5.48059701 5.16964116 5.48059701 5.09190219 5.5194665 5.13077167 5.40285805 5.16964116 5.2862496 5.16964116 5.16964116L5.16964116 1.74912671C5.16964116 1.16608447 4.70320737.738520165 4.15903461.738520165L.544172753.738520165zM18.8128295 2.56538584L18.8128295 1.78799619C18.8128295 1.20495395 18.3463957.777389648 17.8022229.777389648L7.30746269.777389648 7.15198476.777389648C7.19085424.699650683 7.22972372.621911718 7.2685932.544172753 7.38520165.505303271 7.54067958.466433789 7.65728803.466433789L18.1520483.466433789C18.7350905.466433789 19.1626548.932867577 19.1626548 1.47704033L19.1626548 2.52651635C19.0460464 2.52651635 18.9294379 2.52651635 18.8128295 2.56538584zM12.8269292 12.2827564C12.7491902 12.3216259 12.6714513 12.3216259 12.5937123 12.3604954 12.6325818 12.2438869 12.6714513 12.1272785 12.6714513 12.0106701L12.6714513 9.91171801C12.7880597 9.98945697 12.9046681 10.0671959 13.0212766 10.1449349L13.0212766 11.6997142C13.0212766 11.8940616 12.9435376 12.088409 12.8269292 12.2827564L12.8269292 12.2827564zM11.1555414 7.54067958L1.16608447 7.54067958 1.01060654 7.54067958C1.04947602 7.46294062 1.08834551 7.38520165 1.12721499 7.30746269 1.24382344 7.2685932 1.39930137 7.22972372 1.51590981 7.22972372L11.116672 7.22972372C11.116672 7.34633217 11.116672 7.42407113 11.1555414 7.54067958zM32.4560178 2.2155605L32.4560178 1.78799619C32.4560178 1.20495395 31.989584.777389648 31.4454112.777389648L20.950651.777389648 20.7951731.777389648C20.8340426.699650683 20.872912.621911718 20.9117815.544172753 21.02839.505303271 21.1838679.466433789 21.3004763.466433789L31.7952366.466433789C32.3782788.466433789 32.8058431.932867577 32.8058431 1.47704033L32.8058431 2.2155605 32.4560178 2.2155605z"/>
      <path fill="#BE5544"/>
      <path fill="#B36960"/>
      <path fill="#BE5544"/>
    </g>
    <g transform="translate(50.53 50.919)">
      <path fill="#EF4423" d="M32.2616704,0.116608447 L23.6326453,0.116608447 C22.9718641,0.116608447 22.4276913,0.583042236 22.4276913,1.12721499 L22.4276913,4.54772944 C22.4276913,5.13077167 22.9718641,5.55833598 23.6326453,5.55833598 L32.2616704,5.55833598 L32.2616704,0.116608447 Z"/>
      <g transform="translate(13.604 6.608)">
        <path fill="#F15F23" d="M1.28269292,0.272086377 L13.6043188,0.272086377 C14.2651,0.272086377 14.8092728,0.738520165 14.8092728,1.28269292 L14.8092728,4.70320737 C14.8092728,4.8586853 14.7704033,4.97529374 14.7315338,5.09190219 C14.1873611,5.2862496 13.6431883,5.5194665 13.0601461,5.75268339 L1.28269292,5.75268339 C0.621911718,5.75268339 0.0777389648,5.2862496 0.0777389648,4.74207685 L0.0777389648,1.3215624 C0.0388694824,0.738520165 0.583042236,0.272086377 1.28269292,0.272086377 Z"/>
        <path fill="#F58C7A" d="M13.8375357,5.44172753 L13.8375357,2.09895205 C13.8375357,1.51590981 13.293363,1.08834551 12.6325818,1.08834551 L0.310955859,1.08834551 L0.0777389648,1.08834551 C0.116608447,1.01060654 0.15547793,0.932867577 0.194347412,0.855128612 C0.349825341,0.777389648 0.583042236,0.738520165 0.777389648,0.738520165 L13.0990156,0.738520165 C13.7597968,0.738520165 14.3039695,1.20495395 14.3039695,1.74912671 L14.3039695,5.16964116 L14.3039695,5.2862496 L13.8375357,5.44172753 Z"/>
      </g>
      <g transform="translate(8.94 13.216)">
        <path fill="#EF4423" d="M0.6607812,0.272086377 L12.9824071,0.272086377 C13.3322325,0.272086377 13.6431883,0.388694824 13.8764052,0.621911718 C11.7774532,1.39930137 9.56189266,2.2155605 7.22972372,3.10955859 C4.70320737,2.13782153 2.33216894,1.24382344 0.0388694824,0.388694824 C0.233216894,0.310955859 0.427564306,0.272086377 0.6607812,0.272086377 Z"/>
        <path fill="#F58C7A"/>
      </g>
      <g transform="translate(0 6.608)">
        <path fill="#B4302E" d="M0.194347412,0.272086377 L11.2332804,0.272086377 C11.8940616,0.272086377 12.4382344,0.738520165 12.4382344,1.28269292 L12.4382344,4.70320737 C12.4382344,5.2862496 11.8940616,5.71381391 11.2332804,5.71381391 L5.71381391,5.71381391 C3.73147031,4.97529374 1.90460464,4.23677358 0.194347412,3.49825341 L0.194347412,0.272086377 L0.194347412,0.272086377 Z"/>
        <path fill="#B36960" d="M11.7774532,5.63607494 C11.6608447,5.67494443 11.5442363,5.71381391 11.4276278,5.75268339 C11.4664973,5.67494443 11.4664973,5.59720546 11.4664973,5.5194665 L11.4664973,2.09895205 C11.4664973,1.51590981 10.9223245,1.08834551 10.2615433,1.08834551 L0.194347412,1.08834551 L0.194347412,0.738520165 L10.7279771,0.738520165 C11.3887583,0.738520165 11.9329311,1.20495395 11.9329311,1.74912671 L11.9329311,5.16964116 C11.9329311,5.32511909 11.8551921,5.48059701 11.7774532,5.63607494 Z"/>
      </g>
    </g>
    <path fill="#F58C7A"/>
    <g transform="translate(59.47 64.135)">
      <path fill="#B4302E" d="M0.6607812,0.272086377 L3.77033979,0.272086377 C3.77033979,0.272086377 4.46999047,1.3215624 5.09190219,2.29329946 C3.34277548,1.63251826 1.67138774,1.01060654 0.0388694824,0.388694824 C0.233216894,0.310955859 0.427564306,0.272086377 0.6607812,0.272086377 Z"/>
      <polygon fill="#B36960" points="4.276 1.161 1.788 1.161 .855 .661 4.042 .661"/>
    </g>
    <g fill="#B2282D" fill-rule="nonzero" transform="translate(113.499 7.774)">
      <path d="M22.9329946,24.8764687 C21.8057796,25.6538584 20.4842172,26.2369006 19.0071769,26.6644649 C17.5301366,27.0920292 16.0142267,27.3252461 14.5371864,27.3252461 C12.3993649,27.3252461 10.4558908,26.9754208 8.70676405,26.3146396 C6.95763735,25.6538584 5.44172753,24.6821213 4.1979041,23.5160368 C2.95408066,22.3110829 1.94347412,20.872912 1.28269292,19.2403938 C0.583042236,17.569006 0.233216894,15.7810098 0.233216894,13.8764052 C0.233216894,11.9329311 0.583042236,10.1449349 1.28269292,8.47354716 C1.9823436,6.80215942 2.95408066,5.40285805 4.1979041,4.1979041 C5.44172753,2.99295014 6.95763735,2.06008257 8.70676405,1.39930137 C10.4558908,0.738520165 12.3993649,0.388694824 14.5371864,0.388694824 C16.0530962,0.388694824 17.4912671,0.583042236 18.851699,1.01060654 C20.2121308,1.43817085 21.4948238,1.9823436 22.6997777,2.68199428 L20.8340426,7.81276596 C19.8623055,7.2685932 18.851699,6.8410289 17.8022229,6.53007304 C16.7527469,6.21911718 15.6644014,6.06363925 14.6149254,6.06363925 C13.4099714,6.06363925 12.2827564,6.25798666 11.3110194,6.607812 C10.3392823,6.95763735 9.4841537,7.46294062 8.8233725,8.1625913 C8.1625913,8.8233725 7.61841855,9.67850111 7.2685932,10.6502382 C6.91876786,11.6219752 6.72442045,12.7103207 6.72442045,13.9152747 C6.72442045,15.1202286 6.91876786,16.2085742 7.2685932,17.1803112 C7.61841855,18.1520483 8.1625913,18.9683074 8.8233725,19.6290886 C9.4841537,20.2898698 10.3392823,20.8340426 11.3110194,21.1838679 C12.2827564,21.5336932 13.4099714,21.7280406 14.6149254,21.7280406 C15.7032709,21.7280406 16.7916164,21.5725627 17.9188314,21.2227374 C19.0460464,20.872912 20.1343919,20.4064782 21.1449984,19.7845665 L22.9329946,24.8764687 Z"/>
      <polygon points="43.067 26.898 43.067 16.403 33 16.403 33 26.898 26.937 26.898 26.937 .739 33 .739 33 10.961 43.067 10.961 43.067 .739 49.131 .739 49.131 26.898 43.067 26.898"/>
      <polygon points="55 26.898 55 .739 61.064 .739 61.064 26.898 55 26.898"/>
      <polygon points="88.195 26.898 87.884 14.071 80.654 23.244 79.993 23.244 72.686 14.032 72.453 26.859 66.622 26.859 67.827 .544 68.644 .466 80.46 15.431 92.004 .505 92.82 .583 94.064 26.898"/>
      <polygon points="121.273 27.403 105.492 13.216 105.492 26.859 99.428 26.859 99.428 .389 100.244 .233 115.792 14.304 115.792 .739 121.856 .739 121.856 27.286"/>
      <polygon points="127.57 26.898 127.57 .739 144.128 .739 144.128 6.297 133.633 6.297 133.633 10.961 143.195 10.961 143.195 16.247 133.633 16.247 133.633 21.378 144.128 21.378 144.128 26.898"/>
      <polygon points="162.241 16.558 162.241 26.898 156.178 26.898 156.178 16.52 146.966 .739 153.923 .739 159.287 10.767 164.651 .739 171.453 .739"/>
    </g>
    <g fill="#060D22" fill-rule="nonzero" transform="translate(118.552 41.59)">
      <path d="M1.04947602.116608447L2.02121308.116608447C2.56538584.116608447 2.83747221.427564306 2.83747221 1.01060654L2.83747221 7.38520165C2.83747221 7.85163544 3.03181963 8.1625913 3.42051445 8.27919975L5.13077167 8.27919975C5.63607494 8.24033026 5.90816132 7.9293744 5.86929184 7.42407113L5.86929184.893998095C5.90816132.388694824 6.21911718.15547793 6.72442045.116608447L7.81276596.116608447C8.35693871.116608447 8.62902509.427564306 8.66789457 1.01060654L8.66789457 18.5796126C8.66789457 19.1237853 8.39580819 19.3958717 7.89050492 19.3958717L6.76328993 19.3958717C6.1802477 19.3958717 5.90816132 19.1626548 5.86929184 18.7350905L5.86929184 11.5442363C5.86929184 11.0000635 5.63607494 10.6891077 5.16964116 10.5724992L3.61486186 10.5724992C3.07068911 10.6113687 2.79860273 10.9223245 2.83747221 11.4664973L2.83747221 18.696221C2.83747221 19.1626548 2.60425532 19.3958717 2.2155605 19.3958717L.932867577 19.3958717C.466433789 19.3958717.233216894 19.1237853.194347412 18.6573515L.194347412 1.08834551C.194347412.466433789.466433789.116608447 1.04947602.116608447zM31.0955859.194347412L37.9366148.194347412C38.4807876.233216894 38.7528739.466433789 38.7528739.971737059L38.7528739 1.63251826C38.7528739 2.25442998 38.4807876 2.56538584 37.9754843 2.56538584L33.3111464 2.56538584C33.0001905 2.56538584 32.8835821 2.72086377 32.8835821 3.07068911L32.8835821 7.61841855C32.8835821 7.96824389 33.116799 8.1625913 33.5832328 8.1625913L35.8376628 8.1625913C36.2652271 8.1625913 36.4595745 8.43467768 36.4595745 8.97885043L36.4595745 9.83397904C36.420705 10.3004128 36.2263576 10.4947602 35.8376628 10.4947602L33.4277548 10.4947602C33.03906 10.4947602 32.8447126 10.7279771 32.8447126 11.2721499L32.8447126 16.3640521C32.8447126 16.7527469 33.0001905 16.9470943 33.3111464 16.9470943L37.8977453 16.9470943C38.4419181 17.0248333 38.675135 17.2969197 38.675135 17.7633534L38.675135 18.5407431C38.675135 19.0849158 38.4030486 19.3570022 37.8977453 19.3570022L31.3676723 19.3570022C30.8234995 19.3570022 30.5125437 19.0849158 30.5125437 18.5407431L30.5125437.777389648C30.5514131.388694824 30.7457606.194347412 31.0955859.194347412zM64.5622102.116608447C67.4385519.116608447 68.8378533 1.3215624 68.8378533 3.69260083L68.8378533 7.30746269C68.8378533 8.62902509 68.0993331 9.56189266 66.5834233 10.1060654 66.5056843 10.1449349 66.5056843 10.3004128 66.5834233 10.5336297L68.8378533 18.5018736C68.8767228 18.5796126 68.8767228 18.696221 68.8767228 18.77396 68.8767228 19.1626548 68.6046364 19.3958717 68.0993331 19.3958717L67.4385519 19.3958717C66.9721181 19.3958717 66.6611623 19.1237853 66.5445538 18.5407431L64.7565576 11.0000635C64.6788187 10.5724992 64.4844713 10.3392823 64.2123849 10.2615433L63.5516037 10.2615433C63.0851699 10.2615433 62.8130835 10.5724992 62.8130835 11.1944109L62.8130835 18.5407431C62.8130835 19.1237853 62.5409971 19.3958717 62.0356939 19.3958717L61.4137822 19.3958717C60.9084789 19.3958717 60.6363925 19.1237853 60.6363925 18.5407431L60.6363925.971737059C60.6363925.427564306 60.8307399.15547793 61.2583042.15547793L64.5622102.15547793 64.5622102.116608447zM62.851953 7.34633217C62.851953 8.08485233 63.0851699 8.43467768 63.5127342 8.43467768L64.9897745 8.43467768C65.7671642 8.43467768 66.3113369 8.04598285 66.5056843 7.22972372L66.5056843 3.65373134C66.5056843 3.18729755 66.3502064 2.79860273 66.0003811 2.56538584 65.6894252 2.29329946 65.2229914 2.17669101 64.6788187 2.17669101L63.8625595 2.17669101C63.1629089 2.17669101 62.8130835 2.44877739 62.8130835 2.95408066L62.8130835 7.34633217 62.851953 7.34633217zM94.919276.116608447C97.5624008.116608447 98.8839632 1.24382344 98.8839632 3.5371229L98.8839632 14.7315338C98.8839632 17.8410924 97.5624008 19.3958717 94.919276 19.3958717 92.1984122 19.3958717 90.8379803 17.9188314 90.8379803 14.9258812L90.8379803 3.57599238C90.7991108 1.24382344 92.1595427.116608447 94.919276.116608447zM92.8591934 4.15903461L93.0146713 15.1979676C93.0146713 16.4806605 93.636583 17.1025722 94.8804065 17.1025722 96.0853604 17.1025722 96.7072721 16.441791 96.7072721 15.1979676L96.7072721 4.15903461C96.7072721 2.91521118 96.0853604 2.25442998 94.8804065 2.25442998 93.5588441 2.29329946 92.8591934 2.91521118 92.8591934 4.15903461zM121.467132.194347412L128.308161.194347412C128.852334.233216894 129.12442.466433789 129.12442.971737059L129.12442 1.63251826C129.12442 2.25442998 128.852334 2.56538584 128.347031 2.56538584L123.682693 2.56538584C123.371737 2.56538584 123.255129 2.72086377 123.255129 3.07068911L123.255129 7.61841855C123.255129 7.96824389 123.488346 8.1625913 123.954779 8.1625913L126.209209 8.1625913C126.636774 8.1625913 126.831121 8.43467768 126.831121 8.97885043L126.831121 9.83397904C126.792252 10.3004128 126.597904 10.4947602 126.209209 10.4947602L123.799301 10.4947602C123.410607 10.4947602 123.216259 10.7279771 123.216259 11.2721499L123.216259 16.3640521C123.216259 16.7527469 123.371737 16.9470943 123.682693 16.9470943L128.269292 16.9470943C128.813465 17.0248333 129.046681 17.2969197 129.046681 17.7633534L129.046681 18.5407431C129.046681 19.0849158 128.774595 19.3570022 128.269292 19.3570022L121.739219 19.3570022C121.195046 19.3570022 120.88409 19.0849158 120.88409 18.5407431L120.88409.777389648C120.92296.388694824 121.117307.194347412 121.467132.194347412zM155.089235.116608447C157.732359.116608447 159.015052 1.47704033 159.015052 4.1979041 159.015052 4.8586853 158.781836 5.20851064 158.276532 5.20851064L157.460273 5.20851064C156.95497 5.20851064 156.721753 4.8586853 156.721753 4.1979041 156.721753 2.99295014 156.17758 2.37103842 155.050365 2.37103842 153.96202 2.37103842 153.417847 2.99295014 153.417847 4.1979041 153.417847 5.24738012 153.689933 5.98590029 154.195237 6.45233407L156.721753 9.44528422C157.965576 10.6113687 158.742966 12.5548428 159.015052 15.2757066 159.015052 18.0354398 157.69349 19.4347412 155.050365 19.4347412 152.329501 19.4347412 150.96907 18.2686567 150.96907 15.8976183 150.96907 15.470054 151.396634 15.2757066 152.212893 15.2757066 153.029152 15.2757066 153.456716 15.4311845 153.417847 15.7421404 153.417847 16.7916164 153.96202 17.2969197 155.050365 17.2969197 156.17758 17.2969197 156.721753 16.8304859 156.721753 15.8587488L156.721753 15.2757066C156.333058 12.9435376 155.244713 11.0000635 153.456716 9.44528422L151.979676 7.73502699C151.280025 6.95763735 150.96907 5.79155287 150.96907 4.23677358 150.96907 1.47704033 152.329501.116608447 155.089235.116608447z"/>
    </g>
  </g>
</svg>
