<?xml version="1.0" encoding="UTF-8"?>
<svg width="28" height="28" version="1.1" viewBox="0 0 43 56" xmlns="http://www.w3.org/2000/svg" xmlns:xlink="http://www.w3.org/1999/xlink">
    <!--Generated by IJSVG (https://github.com/curthard89/IJSVG)-->
    <g transform="translate(-369, -479)">
        <g transform="translate(369, 479)">
            <g fill-rule="evenodd" stroke="none" stroke-width="1">
                <path fill="#E9E9E0" d="M30.485,0h-29.022c-0.808,0 -1.463,0.655 -1.463,1.926v53.074c0,0.345 0.655,1 1.463,1h40.074c0.808,0 1.463,-0.655 1.463,-1v-42.022c0,-0.696 -0.093,-0.92 -0.257,-1.085l-11.636,-11.636c-0.165,-0.164 -0.389,-0.257 -0.622,-0.257"></path>
                <path fill="#D9D7CA" d="M0,0v11.849h11.849l-11.849,-11.849" transform="translate(31, 0.151)"></path>
                <path fill="#CC4B4C" d="M2.148,26.418v0c-0.348,0 -0.682,-0.113 -0.967,-0.326c-1.041,-0.782 -1.181,-1.651 -1.115,-2.243c0.182,-1.627 2.195,-3.332 5.985,-5.068c1.504,-3.296 2.935,-7.357 3.788,-10.75c-0.998,-2.173 -1.967,-4.99 -1.261,-6.644c0.248,-0.578 0.558,-1.023 1.134,-1.215c0.229,-0.076 0.804,-0.172 1.016,-0.172c0.504,0 0.947,0.649 1.261,1.049c0.295,0.377 0.964,1.174 -0.373,6.803c1.348,2.783 3.257,5.619 5.088,7.561c1.311,-0.237 2.439,-0.358 3.358,-0.358c1.566,0 2.515,0.366 2.902,1.117c0.32,0.622 0.188,1.349 -0.391,2.16c-0.557,0.779 -1.324,1.191 -2.22,1.191c-1.216,0 -2.632,-0.768 -4.211,-2.285c-2.838,0.593 -6.151,1.651 -8.829,2.822c-0.836,1.774 -1.637,3.203 -2.383,4.251c-1.023,1.437 -1.907,2.107 -2.782,2.107v0Zm2.662,-5.126c-2.138,1.201 -3.009,2.188 -3.071,2.744c-0.01,0.092 -0.037,0.334 0.431,0.692c0.149,-0.047 1.019,-0.444 2.64,-3.436v0Zm13.637,-4.442c0.815,0.627 1.014,0.944 1.547,0.944c0.234,0 0.902,-0.01 1.21,-0.441c0.149,-0.209 0.207,-0.343 0.229,-0.414c-0.122,-0.066 -0.285,-0.197 -1.175,-0.197c-0.504,0 -1.139,0.021 -1.811,0.108v0Zm-7.47,-6.582c-0.716,2.474 -1.66,5.145 -2.674,7.564c2.09,-0.811 4.362,-1.519 6.496,-2.02c-1.35,-1.568 -2.699,-3.526 -3.822,-5.544v0Zm-0.607,-8.462c-0.098,0.033 -1.33,1.757 0.096,3.216c0.949,-2.115 -0.053,-3.23 -0.096,-3.216v0Z" transform="translate(10.866, 6.906)"></path>
                <path fill="#CC4B4C" d="M41.537,17h-40.074c-0.808,0 -1.463,-0.655 -1.463,-1.463v-15.537h43v15.537c0,0.808 -0.655,1.463 -1.463,1.463" transform="translate(0, 39)"></path>
                <path fill="#FFFFFF" d="M1.641,10.076h-1.641v-10.076h2.899c0.428,0 0.852,0.068 1.271,0.205c0.419,0.137 0.795,0.342 1.128,0.615c0.333,0.274 0.602,0.604 0.807,0.991c0.205,0.388 0.307,0.823 0.307,1.306c0,0.511 -0.087,0.973 -0.259,1.388c-0.174,0.415 -0.416,0.763 -0.725,1.046c-0.31,0.282 -0.684,0.501 -1.121,0.656c-0.438,0.155 -0.921,0.232 -1.449,0.232h-1.217v3.637v0Zm0,-8.832v3.992h1.504c0.2,0 0.398,-0.034 0.594,-0.102c0.196,-0.069 0.376,-0.18 0.54,-0.335c0.165,-0.156 0.296,-0.371 0.397,-0.65c0.1,-0.278 0.15,-0.622 0.15,-1.032c0,-0.164 -0.023,-0.353 -0.068,-0.567c-0.046,-0.214 -0.139,-0.419 -0.28,-0.616c-0.142,-0.196 -0.34,-0.36 -0.595,-0.492c-0.255,-0.132 -0.593,-0.198 -1.012,-0.198h-1.23v0Z" transform="translate(9.244, 42.924)"></path>
                <path fill="#FFFFFF" d="M8.135,4.758c0,0.829 -0.089,1.538 -0.267,2.126c-0.178,0.588 -0.403,1.08 -0.677,1.476c-0.273,0.397 -0.581,0.709 -0.922,0.937c-0.342,0.227 -0.673,0.398 -0.992,0.512c-0.319,0.115 -0.61,0.187 -0.875,0.219c-0.264,0.032 -0.46,0.048 -0.588,0.048h-3.814v-10.076h3.035c0.848,0 1.593,0.135 2.236,0.403c0.642,0.269 1.175,0.627 1.599,1.073c0.424,0.447 0.74,0.955 0.95,1.525c0.21,0.569 0.315,1.155 0.315,1.757v0Zm-4.867,4.115c1.111,0 1.914,-0.356 2.406,-1.067c0.492,-0.71 0.738,-1.741 0.738,-3.089c0,-0.419 -0.05,-0.834 -0.15,-1.244c-0.101,-0.411 -0.294,-0.782 -0.581,-1.115c-0.287,-0.333 -0.677,-0.601 -1.169,-0.806c-0.492,-0.205 -1.131,-0.308 -1.914,-0.308h-0.957v7.629h1.627v0Z" transform="translate(17.584, 42.924)"></path>
                <path fill="#FFFFFF" d="M1.668,1.244v3.172h4.211v1.121h-4.211v4.539h-1.668v-10.076h6.302v1.244h-4.634" transform="translate(28.098, 42.924)"></path>
            </g>
        </g>
    </g>
</svg>